<?xml version="1.0" standalone="no"?>
<!DOCTYPE svg PUBLIC "-//W3C//DTD SVG 20010904//EN"
 "http://www.w3.org/TR/2001/REC-SVG-20010904/DTD/svg10.dtd">
<svg version="1.0" xmlns="http://www.w3.org/2000/svg"
 width="127.000000pt" height="127.000000pt" viewBox="0 0 127.000000 127.000000"
 preserveAspectRatio="xMidYMid meet">
<metadata>
Created by potrace 1.11, written by Peter Selinger 2001-2013
</metadata>
<g transform="translate(0.000000,127.000000) scale(0.100000,-0.100000)"
fill="#000000" stroke="none">
<path d="M506 1223 c-178 -40 -344 -195 -412 -385 -17 -47 -19 -56 -32 -140
-12 -78 -8 -154 13 -258 2 -11 28 -85 32 -93 2 -4 12 -3 22 3 16 8 24 0 55
-53 41 -69 82 -116 143 -164 45 -36 138 -83 165 -83 9 0 19 -6 21 -12 4 -10 6
-10 6 0 1 7 -29 62 -66 122 -36 61 -64 112 -61 115 3 3 38 15 78 26 83 23 117
38 86 39 -66 1 -169 120 -181 211 -6 39 -12 53 -27 57 -17 4 -19 10 -13 51 28
197 210 318 385 255 93 -34 177 -143 194 -252 6 -38 4 -44 -13 -49 -14 -3 -22
-20 -30 -62 -18 -93 -80 -172 -159 -206 -22 -9 -15 -13 62 -39 47 -16 86 -32
86 -34 0 -3 -32 -56 -71 -120 -69 -111 -70 -114 -42 -108 108 25 270 156 324
262 21 43 28 50 46 43 25 -9 35 9 58 100 73 289 -68 610 -320 731 -44 21 -98
41 -120 46 -66 13 -166 12 -229 -3z"/>
<path d="M468 793 c-2 -27 -2 -78 0 -115 l4 -67 154 1 154 1 1 26 c0 14 1 65
2 114 l2 87 -157 0 -157 0 -3 -47z"/>
<path d="M439 573 c-37 -40 -52 -70 -36 -75 10 -3 393 -2 435 1 20 2 14 20
-20 62 l-31 39 -161 0 -161 0 -26 -27z"/>
</g>
</svg>
